<?xml version="1.0" encoding="UTF-8" standalone="no"?>
<!-- Created with Inkscape (http://www.inkscape.org/) -->

<svg
   xmlns:dc="http://purl.org/dc/elements/1.1/"
   xmlns:cc="http://creativecommons.org/ns#"
   xmlns:rdf="http://www.w3.org/1999/02/22-rdf-syntax-ns#"
   xmlns:svg="http://www.w3.org/2000/svg"
   xmlns="http://www.w3.org/2000/svg"
   xmlns:sodipodi="http://sodipodi.sourceforge.net/DTD/sodipodi-0.dtd"
   xmlns:inkscape="http://www.inkscape.org/namespaces/inkscape"
   width="141.63052mm"
   height="142.31981mm"
   viewBox="0 0 141.63052 142.31981"
   version="1.1"
   id="svg8"
   inkscape:version="0.92.3 (2405546, 2018-03-11)"
   sodipodi:docname="logo.svg">
  <defs
     id="defs2" />
  <sodipodi:namedview
     id="base"
     pagecolor="#ffffff"
     bordercolor="#666666"
     borderopacity="1.0"
     inkscape:pageopacity="0.0"
     inkscape:pageshadow="2"
     inkscape:zoom="0.98994949"
     inkscape:cx="313.51519"
     inkscape:cy="166.1712"
     inkscape:document-units="mm"
     inkscape:current-layer="layer1"
     showgrid="false"
     inkscape:window-width="1574"
     inkscape:window-height="1087"
     inkscape:window-x="1040"
     inkscape:window-y="255"
     inkscape:window-maximized="0" />
  <metadata
     id="metadata5">
    <rdf:RDF>
      <cc:Work
         rdf:about="">
        <dc:format>image/svg+xml</dc:format>
        <dc:type
           rdf:resource="http://purl.org/dc/dcmitype/StillImage" />
        <dc:title></dc:title>
      </cc:Work>
    </rdf:RDF>
  </metadata>
  <g
     inkscape:label="Layer 1"
     inkscape:groupmode="layer"
     id="layer1"
     style="display:inline"
     transform="translate(-34.126605,-76.26931)">
    <path
       style="display:inline;fill:#ffffff;stroke-width:0.35277778;fill-opacity:1"
       d="M 92.690176,205.94883 C 85.807912,198.99666 69.815639,182.90832 57.151789,170.19695 L 34.126605,147.08538 69.535953,111.67734 104.9453,76.26931 l 34.9548,34.83653 c 19.22514,19.16009 35.23758,35.04744 35.5832,35.30521 0.68359,0.50983 2.96839,-1.86383 -36.65119,38.07665 -7.89198,7.9559 -18.68698,18.88341 -23.98889,24.28335 l -9.63984,9.81807 z m 26.884294,-4.08544 c 7.69651,-7.80962 23.04517,-23.32743 34.10812,-34.48403 l 20.11446,-20.28472 -31.33484,-31.22083 C 125.22804,98.70235 109.7129,83.264854 107.9841,81.568263 l -3.14326,-3.084713 -34.21456,34.21468 c -18.818013,18.81807 -34.214568,34.27105 -34.214568,34.33996 0,0.31394 68.480908,69.00294 68.803988,69.01307 0.2008,0.006 6.66225,-6.37825 14.35877,-14.18787 z m 29.19696,-42.52708 c 0,-0.15507 -0.55781,-0.21682 -1.23958,-0.13723 -0.70835,0.0827 -1.47757,-0.0528 -1.7949,-0.31616 -0.49649,-0.41204 -0.47552,-0.4904 0.1979,-0.73951 0.4477,-0.16562 0.7107,-0.52653 0.64838,-0.88977 -0.0749,-0.43667 0.19726,-0.66518 0.95348,-0.80049 0.90608,-0.16213 1.07571,-0.36677 1.17911,-1.42255 0.20109,-2.05313 -0.59742,-4.9291 -1.47348,-5.30706 -0.42018,-0.18127 -1.16084,-0.63348 -1.64591,-1.00491 -0.87937,-0.67334 -4.63595,-1.36952 -4.54857,-0.84295 0.0253,0.15251 0.0272,0.97658 0.004,1.83128 -0.0417,1.55075 -0.0433,1.5526 -0.77541,0.89005 -0.50663,-0.4585 -0.67847,-0.93974 -0.55536,-1.55528 0.20716,-1.03584 -1.79486,-7.07982 -2.69234,-8.128 -0.39279,-0.45874 -1.0389,-0.69826 -1.88362,-0.69826 h -1.28575 l 0.8665,-0.68158 c 0.47658,-0.37488 1.07001,-1.36706 1.31873,-2.20487 0.55147,-1.85753 0.96901,-2.40521 1.83367,-2.40521 0.48826,0 0.66237,0.25639 0.66237,0.97536 0,0.53645 0.31496,1.56302 0.69992,2.28128 0.38496,0.71825 0.78359,1.97174 0.88584,2.78553 0.32965,2.62372 1.58445,3.35066 1.59698,0.92519 0.004,-0.82462 0.30513,-2.15418 0.6686,-2.95458 0.93735,-2.06419 3.78967,-3.45575 7.06041,-3.44457 2.57331,0.009 3.62338,0.43679 5.91218,2.4097 2.2818,1.96687 3.35983,4.59429 3.55955,8.67551 0.16107,3.29111 0.14623,3.37151 -0.69283,3.75381 -0.65405,0.29801 -1.13295,0.27482 -2.01903,-0.0977 -0.63887,-0.26863 -1.37743,-0.36763 -1.64124,-0.22 -1.04577,0.58524 -3.03064,3.91577 -3.72689,6.25356 -0.40449,1.3582 -0.89707,2.66788 -1.09461,2.91042 -0.40339,0.49527 -0.97833,0.58873 -0.97833,0.15903 z m 2.09132,-6.25768 c 0.96785,-2.58682 0.93572,-2.87218 -0.32743,-2.9081 l -1.05833,-0.0301 v 2.44585 c 0,1.34521 0.14734,2.44585 0.32743,2.44585 0.18008,0 0.65633,-0.87908 1.05833,-1.95351 z m -62.85729,5.45303 c -0.498591,-0.2904 -0.617361,-0.85417 -0.617361,-2.93045 0,-2.41567 0.08187,-2.68616 1.356177,-4.48039 l 1.356176,-1.90951 -1.549022,-2.38125 c -1.493259,-2.29553 -2.221664,-2.91692 -2.221664,-1.89528 0,1.08023 -0.896923,1.32668 -3.303291,0.90763 -2.427093,-0.42266 -3.274423,-0.9969 -2.902218,-1.96685 0.18439,-0.48052 0.566106,-0.54687 2.185035,-0.37978 l 1.961614,0.20246 0.726044,-1.74706 c 0.917773,-2.2084 1.36954,-2.3281 6.406737,-1.69751 3.81726,0.47787 3.921912,0.5145 3.921912,1.37291 0,0.83547 -0.116201,0.88748 -2.204861,0.98698 -1.212674,0.0578 -2.204861,0.26301 -2.204861,0.4561 0,0.35065 2.361724,3.69509 3.632352,5.14378 l 0.671868,0.76602 1.618294,-0.69368 c 1.962168,-0.84109 3.035138,-0.75312 3.179829,0.26071 0.10966,0.76835 -1.060622,1.49211 -4.247959,2.62715 -1.254911,0.44689 -1.367469,0.42358 -2.308623,-0.47811 l -0.989394,-0.9479 -1.307348,1.75115 c -1.209238,1.61973 -1.307352,1.93186 -1.307352,4.1592 0,1.40255 -0.176767,2.58481 -0.423334,2.83138 -0.505495,0.5055 -0.627295,0.5091 -1.42875,0.0423 z m 20.2216,-0.925 c -1.76188,-0.92379 -2.67091,-2.34031 -2.67091,-4.16202 0,-2.7843 2.70112,-5.09538 5.37011,-4.59467 1.668,0.31292 3.49776,2.14267 3.81067,3.81067 0.66119,3.5244 -3.374,6.59022 -6.50987,4.94602 z m 3.9351,-2.15702 c 0.33484,-0.32798 0.71059,-1.10536 0.83502,-1.72751 0.19018,-0.95088 0.0553,-1.3021 -0.84623,-2.20364 -1.38059,-1.38058 -2.62388,-1.39349 -3.9761,-0.0413 -1.15537,1.15537 -1.30696,2.29866 -0.46428,3.50175 1.0724,1.53107 3.14532,1.75024 4.45159,0.47066 z m 14.894,2.39339 c -2.50425,-0.75745 -3.88023,-3.93076 -2.72509,-6.28465 1.22081,-2.48771 3.86499,-3.48067 6.21899,-2.3354 5.08452,2.47369 1.9285,10.26013 -3.4939,8.62005 z m 3.63541,-2.66745 c 1.08453,-1.21377 1.00477,-2.45614 -0.23745,-3.69835 -1.15447,-1.15448 -2.29859,-1.30701 -3.49868,-0.46644 -1.79346,1.25619 -1.75422,3.6355 0.0786,4.76818 1.33805,0.82689 2.55957,0.62537 3.6575,-0.60339 z m -69.496226,1.58524 c -3.035019,-0.46901 -5.204466,-2.31342 -5.204466,-4.4247 0,-0.99054 0.301649,-1.34733 2.476544,-2.92921 1.362099,-0.99071 3.022723,-2.06175 3.690277,-2.38008 1.207647,-0.57589 1.224861,-0.57202 3.432484,0.76976 1.220312,0.74171 2.90866,1.90248 3.751884,2.5795 1.364594,1.09563 1.509338,1.34995 1.316651,2.31338 -0.58838,2.9419 -4.865271,4.78191 -9.463374,4.07135 z M 120.4152,155.9887 c -0.40663,-0.29734 -0.58248,-0.8087 -0.5084,-1.47844 0.10151,-0.91777 -0.0195,-1.05607 -1.16775,-1.33446 -1.93669,-0.46956 -3.28765,-2.06911 -3.28556,-3.89014 0.001,-0.81701 0.12796,-1.90123 0.28229,-2.40939 0.24979,-0.82245 0.17206,-0.94466 -0.70788,-1.11288 -0.80192,-0.15329 -1.18979,0.0353 -2.05511,0.99902 -0.98742,1.09975 -1.25685,1.19991 -3.62795,1.3486 -2.69893,0.16924 -3.88497,-0.32611 -3.4562,-1.44349 0.10818,-0.28189 0.19668,-0.57892 0.19668,-0.66007 0,-0.0811 1.02255,-0.14753 2.27234,-0.14753 H 110.63 l 1.5156,-1.94057 c 1.6505,-2.11329 1.92197,-2.24468 6.90057,-3.33973 6.33329,-1.39302 6.31967,-1.41531 4.69841,7.68635 -1.08047,6.06572 -1.70809,8.17728 -2.43052,8.17728 -0.15247,0 -0.55696,-0.20455 -0.89886,-0.45455 z m 0.48112,-7.04198 c 0.22597,-1.4067 0.49659,-2.85892 0.60137,-3.22716 0.16819,-0.59109 0.0535,-0.64211 -0.97939,-0.43555 -1.56004,0.31202 -2.72866,1.47069 -3.01323,2.98761 -0.2046,1.09057 -0.098,1.36095 0.8821,2.23664 1.72151,1.53817 2.04339,1.33785 2.50915,-1.56154 z m -69.579747,6.29989 c -0.339549,-0.25775 -0.617361,-0.58214 -0.617361,-0.72086 0,-0.60868 3.046838,-4.07972 3.581127,-4.07972 0.927368,0 5.943872,-6.22014 5.943872,-7.37002 0,-1.3962 0.617173,-1.8022 2.739581,-1.8022 2.422995,0 3.257641,0.44406 3.257641,1.73317 0,1.21301 5.044969,7.43905 6.027875,7.43905 0.339757,0 1.34269,0.91281 2.228741,2.02847 l 1.611002,2.02847 -0.78867,0.62018 c -0.777367,0.61128 -0.812627,0.59359 -2.460473,-1.23473 -0.919491,-1.02019 -1.673553,-2.20219 -1.675695,-2.62668 -0.0036,-0.72031 -4.095249,-6.04484 -4.678196,-6.08786 -0.145521,-0.0107 -0.264584,0.38308 -0.264584,0.87514 v 0.89467 l -1.316614,-0.89467 c -1.625654,-1.10466 -1.738339,-1.10466 -3.363993,0 -1.26663,0.8607 -1.316615,0.8674 -1.316615,0.17639 0,-0.39505 -0.198437,-0.71096 -0.440972,-0.70203 -0.642867,0.0237 -4.497916,5.07917 -4.497916,5.89855 0,0.67485 -2.644531,4.32713 -3.116815,4.30455 -0.129016,-0.006 -0.512387,-0.22211 -0.851935,-0.47987 z m 57.170107,-13.53183 c -0.84153,-0.97983 -0.9475,-1.63439 -0.45444,-2.80703 0.80709,-1.91951 3.25139,-1.98942 4.21778,-0.12062 0.8772,1.69631 -0.22198,3.54501 -2.10775,3.54501 -0.63461,0 -1.3566,-0.26923 -1.65559,-0.61736 z m -47.39656,-2.01244 c -0.47625,-0.47625 -0.865909,-1.27721 -0.865909,-1.77992 0,-1.1762 1.469633,-2.64584 2.645834,-2.64584 1.1762,0 2.645833,1.46964 2.645833,2.64584 0,0.50271 -0.389659,1.30367 -0.865909,1.77992 -0.47625,0.47625 -1.277216,0.86591 -1.779924,0.86591 -0.502709,0 -1.303675,-0.38966 -1.779925,-0.86591 z M 83.270791,138.739 c -1.025112,-0.49574 -1.347519,-1.91087 -0.670687,-2.94385 1.055804,-1.61136 3.06191,-1.39294 3.746599,0.40793 0.388535,1.02192 -0.02801,2.04081 -1.060164,2.5932 -0.805956,0.43133 -1.017807,0.42531 -2.015748,-0.0573 z"
       id="path4583"
       inkscape:connector-curvature="0" />
  </g>
</svg>
